<?xml version="1.0" standalone="no"?>
<!DOCTYPE svg PUBLIC "-//W3C//DTD SVG 20010904//EN"
 "http://www.w3.org/TR/2001/REC-SVG-20010904/DTD/svg10.dtd">
<svg version="1.0" xmlns="http://www.w3.org/2000/svg"
 width="700.000000pt" height="700.000000pt" viewBox="0 0 700.000000 700.000000"
 preserveAspectRatio="xMidYMid meet">
<metadata>
Created by potrace 1.14, written by Peter Selinger 2001-2017
</metadata>
<g transform="translate(0.000000,700.000000) scale(0.100000,-0.100000)"
fill="#000000" stroke="none">
<path d="M399 6559 c-175 -14 -327 -139 -379 -310 -23 -74 -20 -199 5 -269 58
-161 220 -285 381 -289 l31 -1 0 -1987 c0 -1094 3 -2026 7 -2073 4 -47 12
-105 18 -130 5 -25 12 -54 14 -66 21 -110 110 -306 195 -431 69 -100 232 -263
331 -331 123 -84 320 -173 432 -196 170 -35 346 -48 441 -32 17 2 53 7 80 11
234 29 505 163 693 342 l82 78 5 65 c8 94 36 193 76 273 29 57 92 148 118 171
33 30 26 41 -26 41 -62 -1 -204 36 -279 72 -209 102 -358 285 -415 513 -28
111 -23 288 11 395 72 228 229 401 440 488 75 31 175 55 243 58 26 2 47 6 47
10 0 5 -12 21 -26 36 -15 15 -46 57 -69 93 -164 254 -163 574 3 835 33 50 173
195 190 195 15 0 13 -75 15 820 l2 744 40 7 c22 4 55 10 73 14 128 23 271 169
309 315 27 102 7 234 -50 329 -63 104 -186 189 -302 207 -60 9 -2627 12 -2736
3z m1787 -1528 l-1 -656 -435 0 -435 0 -1 656 -1 657 437 -1 438 0 -2 -656z"/>
<path d="M4731 4364 c-60 -16 -114 -49 -157 -95 -60 -67 -82 -119 -89 -220 -3
-35 -7 -75 -10 -88 -40 -204 -216 -350 -425 -354 -125 -2 -220 36 -323 129
-75 68 -126 87 -227 88 -66 0 -95 -4 -132 -21 -66 -30 -133 -96 -165 -162 -23
-47 -27 -69 -27 -141 0 -74 4 -92 28 -140 16 -30 46 -72 67 -95 169 -177 163
-455 -15 -628 -81 -78 -168 -112 -315 -123 -96 -6 -150 -31 -216 -98 -84 -85
-113 -176 -93 -287 18 -101 83 -187 173 -233 49 -24 68 -28 198 -41 259 -27
440 -282 381 -538 -19 -78 -44 -125 -110 -203 -81 -95 -99 -140 -98 -244 0
-63 5 -95 20 -126 52 -109 152 -183 268 -197 48 -6 143 11 182 34 21 11 62 42
93 68 70 59 92 73 161 98 195 72 439 -27 534 -215 30 -60 43 -114 52 -213 11
-133 73 -228 184 -285 47 -24 67 -28 140 -29 73 0 93 4 141 28 66 32 132 100
160 162 19 43 23 62 33 175 11 107 47 187 119 262 60 61 129 101 212 123 150
39 288 3 416 -109 158 -139 356 -133 482 15 110 128 104 309 -13 443 -65 74
-96 128 -114 201 -69 263 116 528 384 550 113 9 170 25 220 59 98 68 143 150
146 265 2 86 -13 133 -63 205 -56 80 -141 122 -261 131 -92 7 -123 14 -189 45
-162 75 -262 245 -250 424 7 114 36 181 119 277 133 156 137 335 9 468 -62 65
-139 96 -236 96 -67 0 -89 -4 -135 -27 -30 -15 -75 -46 -100 -69 -59 -53 -133
-95 -195 -110 -266 -63 -525 115 -550 379 -15 159 -32 206 -99 275 -85 88
-198 120 -315 91z m-150 -1356 c67 -35 131 -96 167 -157 174 -297 -34 -661
-378 -661 -274 0 -482 264 -420 532 65 280 378 422 631 286z m778 -949 c129
-42 214 -165 215 -310 0 -66 -4 -85 -32 -142 -37 -74 -88 -123 -168 -159 -74
-34 -190 -31 -263 7 -197 99 -248 346 -107 513 78 92 231 131 355 91z"/>
</g>
</svg>
