<svg width="326.746" height="89.695" viewBox="0 0 326.746 89.695" xmlns="http://www.w3.org/2000/svg"><g id="svgGroup" stroke-linecap="round" fill-rule="evenodd" font-size="9pt" stroke="#2a7ae2" stroke-width="0.25mm" fill="#2a7ae2" style="stroke:#2a7ae2;stroke-width:0.25mm;fill:#2a7ae2"><path d="M 63.356 73.829 Q 63.056 74.329 61.706 74.129 A 2.874 2.874 0 0 1 59.792 72.974 A 4.087 4.087 0 0 1 59.556 72.629 Q 58.756 71.129 58.706 69.379 Q 58.656 67.642 58.754 64.479 A 202.233 202.233 0 0 1 58.756 64.429 Q 59.292 61.298 60.389 56.406 A 332.043 332.043 0 0 1 60.656 55.229 Q 61.956 49.529 63.606 42.479 A 2121.153 2121.153 0 0 0 66.743 28.864 A 2317.777 2317.777 0 0 0 66.956 27.929 Q 67.815 24.835 68.416 22.369 A 117.692 117.692 0 0 0 68.606 21.579 Q 69.103 19.473 69.396 18.1 A 63.256 63.256 0 0 0 69.556 17.329 L 69.856 15.829 A 0.134 0.134 0 0 0 69.802 15.843 Q 69.69 15.894 69.456 16.129 A 2.668 2.668 0 0 0 68.957 16.825 A 2.842 2.842 0 0 0 68.956 16.829 L 68.656 17.429 L 68.206 18.229 Q 67.756 19.029 66.656 20.729 A 11.311 11.311 0 0 0 65.982 21.745 Q 65.665 22.28 65.349 22.919 A 25.352 25.352 0 0 0 64.856 23.979 A 24.39 24.39 0 0 1 63.992 25.735 Q 63.265 27.085 62.256 28.629 A 623.341 623.341 0 0 0 60.596 31.763 Q 59.724 33.421 58.767 35.26 A 991.989 991.989 0 0 0 58.706 35.379 Q 56.961 38.733 55.657 40.927 A 55.733 55.733 0 0 1 55.356 41.429 A 53.742 53.742 0 0 0 54.414 42.89 A 44.774 44.774 0 0 0 53.906 43.729 Q 53.261 44.82 53.059 45.32 A 2.952 2.952 0 0 0 53.056 45.329 A 9.787 9.787 0 0 1 52.716 46.138 Q 52.329 46.961 51.706 47.979 A 29.809 29.809 0 0 1 49.63 50.935 A 32.47 32.47 0 0 1 49.556 51.029 A 101.685 101.685 0 0 1 48.992 51.864 Q 48.702 52.29 48.377 52.76 A 174.591 174.591 0 0 1 48.156 53.079 A 473.786 473.786 0 0 1 47.584 53.899 Q 47.131 54.547 46.756 55.079 L 46.156 55.929 A 1.282 1.282 0 0 1 46.061 56.199 Q 45.818 56.734 45.006 57.779 Q 44.103 58.939 42.869 60.32 A 72.112 72.112 0 0 1 42.456 60.779 A 37.872 37.872 0 0 1 40.581 62.704 A 31.8 31.8 0 0 1 39.456 63.729 A 35.737 35.737 0 0 1 37.688 65.203 Q 35.371 67.001 33.756 67.479 Q 31.556 68.129 28.756 65.729 Q 27.456 64.129 26.756 62.379 A 8.319 8.319 0 0 1 26.343 60.966 Q 26.19 60.223 26.119 59.342 A 20.613 20.613 0 0 1 26.056 57.679 Q 26.056 55.014 26.79 50.676 A 92.763 92.763 0 0 1 26.956 49.729 Q 27.656 46.329 28.406 42.679 Q 29.156 39.029 29.956 35.679 A 322.365 322.365 0 0 1 30.534 33.293 Q 30.767 32.351 30.985 31.498 A 176.228 176.228 0 0 1 31.406 29.879 A 172.474 172.474 0 0 1 31.691 28.815 Q 32.049 27.498 32.268 26.799 A 15.622 15.622 0 0 1 32.356 26.529 A 33.327 33.327 0 0 0 32.423 25.976 Q 32.601 24.408 32.449 24.129 A 0.127 0.127 0 0 0 32.406 24.079 A 0.11 0.11 0 0 0 32.348 24.063 Q 32.073 24.063 31.356 25.229 A 60.095 60.095 0 0 0 31.033 25.774 Q 30.351 26.94 28.906 29.479 A 165.947 165.947 0 0 0 27.455 32.085 Q 26.824 33.241 26.149 34.515 A 293.777 293.777 0 0 0 24.756 37.179 Q 22.456 41.629 20.256 46.329 Q 16.255 53.745 13.539 58.733 A 2002.687 2002.687 0 0 1 13.406 58.979 Q 10.656 64.029 8.906 67.029 Q 7.566 69.325 6.753 70.743 A 190.892 190.892 0 0 0 6.306 71.529 Q 5.456 73.029 5.056 73.629 Q 4.656 74.229 4.456 74.429 A 3.354 3.354 0 0 1 2.664 73.729 A 4.646 4.646 0 0 1 2.106 73.229 A 11.188 11.188 0 0 1 0.725 71.441 A 13.355 13.355 0 0 1 0.256 70.629 A 11.103 11.103 0 0 1 0.03 69.1 A 12.623 12.623 0 0 1 0.006 68.729 A 4.537 4.537 0 0 1 0 68.502 Q 0 67.579 0.356 66.379 A 13.412 13.412 0 0 1 0.701 65.374 Q 0.9 64.857 1.164 64.271 A 33.502 33.502 0 0 1 1.756 63.029 A 72.527 72.527 0 0 1 2.709 61.184 Q 3.244 60.188 3.751 59.33 A 38.851 38.851 0 0 1 4.206 58.579 A 59.298 59.298 0 0 1 4.61 57.936 Q 5.241 56.949 5.579 56.529 A 2.563 2.563 0 0 1 5.756 56.329 Q 6.256 55.629 6.606 54.829 A 5.931 5.931 0 0 0 6.995 53.604 A 5.324 5.324 0 0 0 7.056 53.229 A 5.165 5.165 0 0 0 7.32 52.876 Q 7.689 52.346 8.246 51.369 A 53.395 53.395 0 0 0 8.606 50.729 Q 9.656 48.829 10.756 46.629 Q 11.368 45.633 12.303 44.081 A 690.168 690.168 0 0 0 12.906 43.079 Q 14.256 40.829 15.756 38.129 Q 17.256 35.429 18.456 33.129 Q 22.956 25.229 25.756 20.229 A 125.399 125.399 0 0 1 26.904 18.218 Q 28.818 14.944 29.756 13.929 A 2.551 2.551 0 0 0 30.239 13.466 Q 30.64 12.977 30.983 12.18 A 8.742 8.742 0 0 0 31.006 12.129 Q 31.556 10.829 31.756 10.129 Q 32.756 7.629 34.006 5.779 A 8.746 8.746 0 0 1 34.514 5.095 Q 35.463 3.949 36.256 4.029 Q 37.051 4.029 38.003 4.38 A 7.869 7.869 0 0 1 38.256 4.479 A 5.528 5.528 0 0 1 39.287 5.043 Q 39.743 5.356 40.2 5.782 A 10.002 10.002 0 0 1 40.456 6.029 Q 41.456 7.329 42.256 9.179 A 5.143 5.143 0 0 1 42.58 10.268 Q 42.872 11.813 42.523 14.113 A 21.837 21.837 0 0 1 42.456 14.529 Q 42.356 16.029 42.006 18.129 Q 41.656 20.229 41.306 22.179 Q 40.956 24.129 40.656 25.429 L 38.656 34.029 Q 37.656 38.329 36.856 42.229 Q 36.056 46.129 35.506 49.279 Q 34.956 52.429 34.806 54.379 Q 34.68 56.012 34.94 56.628 A 0.848 0.848 0 0 0 35.056 56.829 Q 35.434 56.98 35.812 56.816 A 1.382 1.382 0 0 0 36.056 56.679 A 2.2 2.2 0 0 0 36.37 56.405 Q 36.656 56.109 36.972 55.623 A 9.666 9.666 0 0 0 37.156 55.329 Q 37.856 54.429 38.606 53.279 Q 39.356 52.129 40.256 50.829 A 163.44 163.44 0 0 0 41.294 49.291 Q 41.753 48.604 42.256 47.838 A 313.974 313.974 0 0 0 43.306 46.229 Q 45.056 43.529 47.556 39.429 Q 49.274 36.61 51.489 32.893 A 1310.411 1310.411 0 0 0 53.606 29.329 A 489.159 489.159 0 0 0 56.444 24.463 Q 57.7 22.283 59.078 19.85 A 959.361 959.361 0 0 0 61.956 14.729 Q 64.256 11.229 66.356 7.779 A 49.419 49.419 0 0 1 67.558 5.893 Q 68.736 4.142 69.732 3.066 A 11.951 11.951 0 0 1 70.056 2.729 A 3.712 3.712 0 0 1 70.941 2.018 Q 72.05 1.392 73.456 1.779 A 6.337 6.337 0 0 1 75.679 2.921 Q 76.376 3.464 77.02 4.226 A 11.122 11.122 0 0 1 77.106 4.329 A 8.065 8.065 0 0 1 78.814 8.088 A 10.344 10.344 0 0 1 78.956 9.229 Q 79.035 10.34 78.673 12.713 A 57.449 57.449 0 0 1 78.456 14.029 Q 77.856 17.429 76.856 21.679 Q 75.856 25.929 74.456 30.129 A 35.542 35.542 0 0 1 74.229 31.289 Q 73.946 32.628 73.486 34.409 A 112.653 112.653 0 0 1 73.456 34.529 A 286.262 286.262 0 0 1 72.055 39.723 A 312.483 312.483 0 0 1 71.956 40.079 Q 71.156 42.929 70.456 45.229 Q 69.756 48.629 69.256 51.029 A 20.122 20.122 0 0 0 68.902 53.389 Q 68.839 54.12 68.839 54.82 A 14.891 14.891 0 0 0 68.856 55.529 A 7.271 7.271 0 0 0 68.308 56.794 Q 67.852 58.16 67.656 60.129 A 61.958 61.958 0 0 0 67.357 65.929 A 67.861 67.861 0 0 0 67.356 66.329 A 33.621 33.621 0 0 1 67.124 68.135 Q 66.848 69.887 66.432 71.001 A 5.904 5.904 0 0 1 66.056 71.829 A 10.795 10.795 0 0 1 65.75 72.34 Q 65.116 73.334 64.716 73.334 A 0.306 0.306 0 0 1 64.656 73.329 Q 63.756 73.029 63.356 73.829 Z M 290.356 88.629 Q 288.256 89.829 285.756 89.679 Q 283.256 89.529 280.906 88.479 A 12.849 12.849 0 0 1 278.202 86.866 A 11.208 11.208 0 0 1 276.956 85.729 A 2.318 2.318 0 0 1 276.521 84.959 Q 276.302 84.336 276.302 83.451 A 7.576 7.576 0 0 1 276.306 83.229 A 13.762 13.762 0 0 1 276.416 81.818 Q 276.531 80.96 276.756 80.229 Q 277.229 78.525 277.97 78.434 A 0.694 0.694 0 0 1 278.056 78.429 Q 278.952 78.429 280.047 79.689 A 10.228 10.228 0 0 1 280.556 80.329 A 8.565 8.565 0 0 0 281.814 81.272 Q 283.975 82.581 286.106 81.729 A 7.15 7.15 0 0 0 287.858 80.68 Q 289.423 79.445 291.092 77.103 A 33.682 33.682 0 0 0 291.956 75.829 Q 292.415 74.68 293.285 72.77 A 183.203 183.203 0 0 1 293.856 71.529 Q 295.156 68.729 296.606 65.529 Q 298.056 62.329 299.256 59.579 Q 300.361 57.046 300.787 55.828 A 13.929 13.929 0 0 0 300.856 55.629 L 300.906 55.279 Q 300.956 54.929 301.356 54.529 A 6.395 6.395 0 0 1 301.414 54.315 Q 301.513 53.971 301.719 53.341 A 83.467 83.467 0 0 1 301.856 52.929 Q 302.256 51.729 302.656 50.129 Q 302.962 49.286 303.473 47.799 A 381.187 381.187 0 0 0 303.806 46.829 A 398.536 398.536 0 0 1 304.987 43.416 A 456.312 456.312 0 0 1 305.406 42.229 Q 306.235 39.887 306.826 38.306 A 127.015 127.015 0 0 1 306.856 38.229 Q 307.356 36.129 308.106 33.679 Q 308.856 31.229 309.356 29.929 A 7.543 7.543 0 0 0 309.565 29.463 Q 309.943 28.554 310.556 26.679 Q 311.356 24.229 312.356 21.329 A 485.018 485.018 0 0 1 313.437 17.859 Q 313.951 16.231 314.422 14.787 A 283.085 283.085 0 0 1 314.556 14.379 Q 315.556 11.329 316.056 9.429 Q 316.518 7.67 316.381 7.282 A 0.241 0.241 0 0 0 316.356 7.229 L 314.606 7.529 Q 312.856 7.829 310.756 8.229 Q 309.056 8.929 307.356 8.979 A 5.476 5.476 0 0 1 307.237 8.981 Q 305.722 8.992 305.844 8.1 A 1.165 1.165 0 0 1 305.856 8.029 L 305.856 7.379 L 305.856 7.129 A 0.332 0.332 0 0 1 305.668 7.186 Q 305.461 7.186 305.186 6.95 A 2.349 2.349 0 0 1 305.056 6.829 Q 304.556 6.329 304.156 5.479 A 6.613 6.613 0 0 1 303.962 5.029 Q 303.794 4.59 303.763 4.27 A 1.442 1.442 0 0 1 303.756 4.129 A 0.767 0.767 0 0 1 303.944 3.658 Q 304.33 3.166 305.508 2.639 A 13.49 13.49 0 0 1 306.006 2.429 A 17.993 17.993 0 0 1 308.302 1.695 Q 309.445 1.407 310.746 1.213 A 31.13 31.13 0 0 1 311.356 1.129 A 74.771 74.771 0 0 1 313.351 0.858 Q 314.551 0.711 315.906 0.579 Q 318.456 0.329 319.756 0.129 A 0.583 0.583 0 0 1 319.951 0.036 Q 320.356 -0.077 321.189 0.163 A 7.598 7.598 0 0 1 321.406 0.229 A 20.592 20.592 0 0 1 322.859 0.758 A 26.26 26.26 0 0 1 324.056 1.279 Q 325.456 1.929 325.956 2.529 Q 326.556 3.329 326.706 4.229 Q 326.856 5.129 326.456 6.729 Q 326.149 7.954 325.462 9.97 A 103.308 103.308 0 0 1 325.006 11.279 Q 324.202 13.537 322.899 17.056 A 1105.731 1105.731 0 0 1 322.056 19.329 Q 319.856 25.529 318.156 30.579 Q 316.497 35.507 315.123 38.768 A 64.23 64.23 0 0 1 315.056 38.929 Q 314.826 39.771 314.332 41.199 A 95.147 95.147 0 0 1 314.006 42.129 Q 313.256 44.229 312.556 46.379 A 167.957 167.957 0 0 0 312.224 47.407 Q 311.821 48.672 311.543 49.625 A 56.054 56.054 0 0 0 311.456 49.929 A 45.863 45.863 0 0 0 310.403 52.683 A 54.327 54.327 0 0 0 309.956 54.029 A 699.619 699.619 0 0 0 309.624 55.072 Q 309.302 56.091 309.06 56.87 A 211.999 211.999 0 0 0 308.856 57.529 A 3.82 3.82 0 0 1 308.779 58.267 Q 308.681 58.766 308.456 59.329 Q 308.056 60.329 307.556 60.829 L 306.856 62.579 A 234.834 234.834 0 0 1 306.288 63.982 Q 306.034 64.606 305.751 65.292 A 439.93 439.93 0 0 1 305.156 66.729 Q 304.356 68.729 303.406 71.179 A 40.625 40.625 0 0 1 302.826 72.598 Q 302.206 74.035 301.656 74.929 Q 301.156 76.129 300.456 77.179 A 11.574 11.574 0 0 0 300.218 77.549 Q 299.843 78.161 299.772 78.491 A 0.664 0.664 0 0 0 299.756 78.629 L 299.706 78.929 A 0.339 0.339 0 0 1 299.628 79.102 Q 299.516 79.229 299.256 79.229 L 298.956 79.479 Q 298.656 79.729 298.656 80.229 Q 298.462 80.808 297.523 81.947 A 20.507 20.507 0 0 1 297.456 82.029 A 41.208 41.208 0 0 1 296.386 83.258 Q 295.81 83.897 295.148 84.584 A 66.182 66.182 0 0 1 295.106 84.629 A 38.864 38.864 0 0 1 293.438 86.261 A 31.82 31.82 0 0 1 292.456 87.129 A 22.134 22.134 0 0 1 291.764 87.692 Q 291.126 88.189 290.639 88.474 A 4.896 4.896 0 0 1 290.356 88.629 Z M 236.039 68.634 A 22.293 22.293 0 0 0 237.956 69.529 A 9.244 9.244 0 0 0 239.01 69.828 Q 240.416 70.143 242.306 70.179 A 31.053 31.053 0 0 0 242.891 70.184 Q 245.222 70.184 247.356 69.829 A 29.323 29.323 0 0 0 248.407 69.635 Q 249.441 69.423 250.126 69.187 A 5.25 5.25 0 0 0 250.756 68.929 A 11.881 11.881 0 0 0 251.036 68.8 Q 252.001 68.34 252.749 67.765 A 6.522 6.522 0 0 0 254.556 65.679 A 3.689 3.689 0 0 0 254.988 63.906 Q 254.988 62.901 254.522 61.722 A 10.57 10.57 0 0 0 253.956 60.529 A 3.148 3.148 0 0 0 253.855 60.175 Q 253.718 59.784 253.471 59.384 A 5.97 5.97 0 0 0 252.956 58.679 Q 252.156 57.729 250.306 56.179 A 56.052 56.052 0 0 0 249.604 55.601 Q 247.84 54.172 244.956 52.029 Q 243.256 50.629 242.506 49.879 A 2.639 2.639 0 0 1 242.485 49.858 Q 241.844 49.202 241.844 48.283 A 2.805 2.805 0 0 1 241.856 48.029 Q 241.816 47.716 241.838 47.404 A 3.458 3.458 0 0 1 242.056 46.429 Q 242.356 45.629 242.556 44.929 A 99.413 99.413 0 0 1 242.762 44.62 Q 243.011 44.25 243.352 43.747 A 395.254 395.254 0 0 1 243.706 43.229 A 62.204 62.204 0 0 1 243.893 42.955 A 56.612 56.612 0 0 1 245.206 41.129 A 32.655 32.655 0 0 1 245.676 40.515 Q 245.901 40.23 246.104 39.988 A 13.986 13.986 0 0 1 246.506 39.529 A 4.332 4.332 0 0 1 246.569 39.461 Q 247.007 39.003 247.051 39.262 A 0.403 0.403 0 0 1 247.056 39.329 Q 247.456 39.329 247.606 39.129 Q 247.723 38.972 247.993 38.511 A 33.045 33.045 0 0 0 248.156 38.229 A 9.34 9.34 0 0 1 248.5 37.938 Q 249.107 37.448 250.012 36.86 A 35.216 35.216 0 0 1 250.856 36.329 A 46.447 46.447 0 0 1 251.529 35.925 A 41.113 41.113 0 0 1 254.406 34.379 A 45.447 45.447 0 0 1 254.434 34.365 Q 256.162 33.527 256.956 33.329 A 11.201 11.201 0 0 1 257.149 33.33 Q 257.787 33.341 258.006 33.429 A 0.296 0.296 0 0 1 258.149 33.559 Q 258.222 33.682 258.245 33.905 A 2.213 2.213 0 0 1 258.256 34.129 A 1.675 1.675 0 0 1 258.226 34.423 Q 258.14 34.899 257.806 35.679 A 11.226 11.226 0 0 1 257.354 36.607 A 14.131 14.131 0 0 1 256.606 37.829 A 8.88 8.88 0 0 1 256.363 38.167 A 9.638 9.638 0 0 1 254.756 39.829 L 254.456 40.179 A 1.451 1.451 0 0 0 254.328 40.351 A 1.069 1.069 0 0 0 254.156 40.929 A 1.98 1.98 0 0 0 254.156 40.962 A 1.656 1.656 0 0 0 254.406 41.829 L 254.656 42.229 A 17.892 17.892 0 0 0 254.756 42.328 A 16.292 16.292 0 0 0 255.456 42.979 Q 255.856 43.329 256.356 43.729 A 1.338 1.338 0 0 0 256.959 44.176 Q 257.618 44.418 258.656 44.029 A 11.469 11.469 0 0 0 259.198 43.809 Q 260.573 43.211 262.156 42.129 A 8.969 8.969 0 0 0 262.564 41.753 Q 263.656 40.682 263.656 39.829 A 1.691 1.691 0 0 1 263.659 39.713 Q 263.686 39.322 263.906 39.279 L 264.156 39.229 A 0.671 0.671 0 0 0 264.549 39.107 Q 264.934 38.838 265.106 37.979 A 15.296 15.296 0 0 0 265.173 37.619 Q 265.269 37.068 265.339 36.446 A 26.81 26.81 0 0 0 265.456 35.079 A 65.949 65.949 0 0 0 265.508 34.091 Q 265.53 33.62 265.541 33.192 A 35.287 35.287 0 0 0 265.556 32.229 Q 265.056 31.129 264.056 29.929 A 13.45 13.45 0 0 0 263.291 29.085 A 10.874 10.874 0 0 0 261.956 27.929 Q 260.856 27.129 259.956 27.329 A 3.042 3.042 0 0 0 259.182 26.967 Q 258.792 26.844 258.317 26.784 A 7.742 7.742 0 0 0 257.356 26.729 Q 255.656 26.729 254.056 27.129 Q 251.456 27.829 248.856 29.279 Q 246.256 30.729 243.906 32.579 Q 241.556 34.429 239.756 36.129 A 21.688 21.688 0 0 0 238.698 37.266 A 26.464 26.464 0 0 0 237.056 39.379 Q 235.756 41.229 234.956 43.179 Q 234.156 45.129 234.156 46.929 A 7.596 7.596 0 0 0 234.164 47.294 Q 234.235 48.749 234.856 50.479 A 11.235 11.235 0 0 0 235.008 50.88 Q 235.424 51.913 235.84 52.257 A 0.653 0.653 0 0 0 236.256 52.429 L 236.256 52.479 L 236.256 52.929 Q 235.916 53.438 237.088 54.558 A 11.104 11.104 0 0 0 237.556 54.979 A 176.228 176.228 0 0 0 237.784 55.173 Q 238.589 55.858 239.503 56.618 A 302.58 302.58 0 0 0 241.456 58.229 A 14.118 14.118 0 0 1 242.31 58.692 A 10.705 10.705 0 0 1 243.206 59.279 A 4.579 4.579 0 0 1 243.354 59.392 Q 243.966 59.88 244.056 60.329 A 1.723 1.723 0 0 1 244.212 60.336 Q 244.551 60.367 244.956 60.529 Q 245.456 60.729 245.856 61.129 A 5.741 5.741 0 0 1 245.858 61.131 Q 246.184 61.392 246.383 61.632 A 1.77 1.77 0 0 1 246.556 61.879 A 0.589 0.589 0 0 1 246.578 61.921 Q 246.702 62.186 246.386 62.294 A 1.027 1.027 0 0 1 246.256 62.329 A 1.297 1.297 0 0 1 246.046 62.495 Q 245.606 62.783 244.706 62.979 A 21.609 21.609 0 0 1 243.738 63.165 A 26.813 26.813 0 0 1 242.206 63.379 Q 240.855 63.529 239.756 63.529 A 81.716 81.716 0 0 0 238.102 63.223 Q 236.53 62.951 235.452 62.844 A 13.976 13.976 0 0 0 234.506 62.779 Q 233.291 62.742 232.726 62.976 A 0.978 0.978 0 0 0 232.406 63.179 A 1.846 1.846 0 0 0 232.039 63.7 A 2.19 2.19 0 0 0 231.856 64.329 A 1.74 1.74 0 0 0 231.93 64.821 Q 232.118 65.457 232.774 66.197 A 8.942 8.942 0 0 0 233.456 66.879 A 10.316 10.316 0 0 0 234.455 67.672 Q 235.162 68.169 236.039 68.634 Z M 223.556 33.129 L 225.156 33.029 A 0.365 0.365 0 0 1 225.244 33.017 Q 225.599 33.017 225.953 33.724 A 4.021 4.021 0 0 1 225.956 33.729 A 4.911 4.911 0 0 0 226.263 34.262 Q 226.539 34.675 226.856 34.929 A 2 2 0 0 1 227.41 35.694 Q 227.815 36.62 227.74 38.291 A 13.962 13.962 0 0 1 227.706 38.829 Q 227.498 41.323 225.872 45.477 A 63.812 63.812 0 0 1 225.156 47.229 Q 223.256 51.329 222.606 53.429 A 17.339 17.339 0 0 0 221.955 56.396 A 15.17 15.17 0 0 0 221.856 57.529 Q 221.856 59.202 222.244 60.487 A 7.268 7.268 0 0 0 222.306 60.679 Q 222.669 61.768 223.715 62.824 A 9.719 9.719 0 0 0 224.256 63.329 A 2.631 2.631 0 0 1 225.461 65.131 A 3.637 3.637 0 0 1 225.506 65.429 Q 225.656 66.829 225.556 68.029 Q 225.381 68.816 224.44 69.259 A 3.795 3.795 0 0 1 224.156 69.379 A 5.384 5.384 0 0 1 222.505 69.709 Q 222.021 69.732 221.506 69.679 Q 220.056 69.529 219.056 68.829 A 6.753 6.753 0 0 1 218.228 67.81 Q 217.868 67.273 217.549 66.614 A 12.821 12.821 0 0 1 217.306 66.079 Q 216.579 64.384 215.993 62.173 A 39.398 39.398 0 0 1 215.956 62.029 Q 215.756 61.229 215.806 60.079 Q 215.845 59.18 215.792 58.617 A 4.058 4.058 0 0 0 215.756 58.329 A 7.458 7.458 0 0 1 215.508 58.845 Q 215.232 59.372 214.806 60.029 A 10.118 10.118 0 0 1 214.365 60.657 Q 214.144 60.946 213.929 61.174 A 4.277 4.277 0 0 1 213.556 61.529 A 6.834 6.834 0 0 1 213.333 61.739 Q 212.963 62.077 212.235 62.683 A 97.704 97.704 0 0 1 211.756 63.079 A 16.564 16.564 0 0 1 210.181 64.23 A 13.296 13.296 0 0 1 208.956 64.929 A 18.51 18.51 0 0 1 207.117 65.966 Q 205.03 66.98 203.368 66.98 A 5.383 5.383 0 0 1 203.256 66.979 Q 200.936 66.93 199.084 64.688 A 9.874 9.874 0 0 1 198.956 64.529 Q 197.356 63.229 196.456 61.379 Q 195.556 59.529 196.156 56.729 Q 196.356 53.229 197.156 49.879 A 29.217 29.217 0 0 1 197.816 47.581 Q 198.603 45.182 199.987 41.993 A 110.873 110.873 0 0 1 200.456 40.929 Q 202.556 36.829 203.656 34.629 A 106.902 106.902 0 0 1 204.04 33.867 Q 204.785 32.406 205.038 32.052 A 1.329 1.329 0 0 1 205.056 32.029 A 4.701 4.701 0 0 1 206.552 31.79 Q 207.103 31.79 207.689 31.909 A 7.089 7.089 0 0 1 208.356 32.079 Q 210.156 32.629 210.356 34.029 Q 210.941 35.005 210.336 37.554 A 17.696 17.696 0 0 1 210.306 37.679 A 20.352 20.352 0 0 1 209.656 39.786 Q 209.255 40.887 208.695 42.106 A 43.07 43.07 0 0 1 207.856 43.829 A 194.69 194.69 0 0 0 205.406 50.072 A 177.976 177.976 0 0 0 205.256 50.479 Q 204.406 52.779 204.033 54.603 A 15.461 15.461 0 0 0 203.806 56.029 A 6.717 6.717 0 0 0 203.777 56.367 Q 203.662 58.366 204.956 58.829 Q 205.856 59.329 207.806 58.629 A 5.89 5.89 0 0 0 209.081 57.963 Q 210.224 57.196 211.538 55.758 A 26.54 26.54 0 0 0 212.306 54.879 A 20.625 20.625 0 0 0 213.914 52.635 Q 215.448 50.196 217.035 46.553 A 78.153 78.153 0 0 0 217.556 45.329 A 39.036 39.036 0 0 0 218.099 43.892 Q 218.353 43.177 218.546 42.53 A 20.932 20.932 0 0 0 218.756 41.779 A 15.635 15.635 0 0 0 219.111 39.924 A 20.291 20.291 0 0 0 219.256 38.329 A 3.429 3.429 0 0 1 219.208 37.764 Q 219.208 36.846 219.706 35.929 Q 220.356 34.729 221.556 34.029 Q 221.916 33.578 222.519 33.169 A 6.511 6.511 0 0 1 222.656 33.079 A 2.135 2.135 0 0 1 222.814 32.985 Q 223.379 32.688 223.556 33.129 Z M 170.956 68.929 Q 168.056 69.429 165.356 68.479 Q 162.656 67.529 160.956 65.329 A 8.078 8.078 0 0 1 159.363 61.478 A 10.768 10.768 0 0 1 159.256 59.929 A 15.509 15.509 0 0 1 159.182 58.566 Q 159.152 56.043 159.856 52.879 A 44.135 44.135 0 0 1 161.861 46.36 A 50.539 50.539 0 0 1 162.556 44.679 A 36.689 36.689 0 0 1 164.449 40.896 A 27.082 27.082 0 0 1 166.656 37.629 Q 168.656 35.229 170.656 33.229 Q 172.61 31.274 174.182 30.561 A 6.024 6.024 0 0 1 174.256 30.529 A 12.371 12.371 0 0 1 175.954 29.949 A 16.269 16.269 0 0 1 177.456 29.629 Q 178.813 29.402 179.601 29.347 A 6.542 6.542 0 0 1 180.056 29.329 Q 181.656 29.729 183.556 30.679 Q 185.058 31.43 185.372 32.337 A 1.491 1.491 0 0 1 185.456 32.829 L 185.706 33.079 L 185.956 33.329 A 0.655 0.655 0 0 1 186.335 33.465 Q 186.719 33.738 187.121 34.553 A 8.061 8.061 0 0 1 187.206 34.729 A 11.14 11.14 0 0 1 187.826 36.43 A 14.38 14.38 0 0 1 188.156 37.929 Q 188.456 39.729 187.856 40.829 Q 187.456 42.729 186.356 44.379 Q 185.317 45.937 184.545 46.023 A 0.805 0.805 0 0 1 184.456 46.029 A 5.693 5.693 0 0 0 183.975 46.048 A 4.731 4.731 0 0 0 183.706 46.079 A 0.356 0.356 0 0 0 183.411 46.302 Q 183.378 46.377 183.365 46.477 A 1.142 1.142 0 0 0 183.356 46.629 Q 183.356 47.129 182.456 47.129 A 3.831 3.831 0 0 1 181.077 46.865 A 4.704 4.704 0 0 1 180.656 46.679 A 2.838 2.838 0 0 1 180.044 46.274 A 2.094 2.094 0 0 1 179.456 45.429 Q 179.456 45.013 179.628 44.286 A 13.3 13.3 0 0 1 179.706 43.979 Q 179.956 43.029 180.356 41.129 A 18.945 18.945 0 0 0 180.514 40.307 Q 180.808 38.562 180.544 37.739 A 1.428 1.428 0 0 0 180.406 37.429 A 0.959 0.959 0 0 0 179.749 36.984 Q 179.128 36.855 178.059 37.25 A 8.303 8.303 0 0 0 177.856 37.329 Q 175.356 38.729 173.506 40.779 Q 171.985 42.463 170.735 45.127 A 28.541 28.541 0 0 0 170.206 46.329 A 42.876 42.876 0 0 0 169.294 48.75 Q 168.319 51.578 167.322 55.468 A 134.929 134.929 0 0 0 167.256 55.729 A 13.645 13.645 0 0 0 167.025 56.77 Q 166.799 58.034 166.917 58.989 A 4.388 4.388 0 0 0 167.006 59.479 Q 167.343 60.875 167.634 61.019 A 0.173 0.173 0 0 0 167.656 61.029 A 6.341 6.341 0 0 0 168.791 61.239 Q 169.548 61.312 170.418 61.237 A 11.877 11.877 0 0 0 170.956 61.179 A 13.306 13.306 0 0 0 172.142 60.971 Q 172.683 60.849 173.137 60.688 A 5.648 5.648 0 0 0 173.956 60.329 Q 175.556 59.529 177.056 58.429 L 180.056 56.229 A 2.041 2.041 0 0 0 180.415 55.948 Q 180.73 55.646 181.046 55.145 A 6.685 6.685 0 0 0 181.056 55.129 A 3.275 3.275 0 0 1 181.963 54.161 A 3.157 3.157 0 0 1 182.356 53.929 A 4.014 4.014 0 0 1 182.853 53.313 Q 183.179 52.987 183.541 52.814 A 1.962 1.962 0 0 1 184.206 52.629 A 22.121 22.121 0 0 1 185.577 52.543 A 26.831 26.831 0 0 1 186.456 52.529 Q 187.181 52.71 187.906 53.302 A 5.751 5.751 0 0 1 188.056 53.429 A 9.923 9.923 0 0 1 188.579 53.919 Q 188.999 54.344 189.256 54.729 Q 189.656 55.329 189.056 55.629 A 0.964 0.964 0 0 0 188.902 55.64 Q 188.645 55.681 188.606 55.879 L 188.556 56.129 A 0.461 0.461 0 0 1 188.586 56.272 Q 188.619 56.797 187.706 57.929 A 28.186 28.186 0 0 1 186.841 58.946 Q 186.35 59.498 185.775 60.095 A 52.679 52.679 0 0 1 185.056 60.829 A 35.591 35.591 0 0 1 183.541 62.261 Q 182.753 62.961 182.006 63.529 Q 180.763 64.471 180.145 64.606 A 0.893 0.893 0 0 1 179.956 64.629 A 2.492 2.492 0 0 0 179.616 64.65 Q 179.238 64.702 179.076 64.884 A 0.5 0.5 0 0 0 178.956 65.229 A 0.175 0.175 0 0 1 178.9 65.33 Q 178.714 65.538 177.904 66.005 A 25.177 25.177 0 0 1 177.506 66.229 Q 176.056 67.029 174.206 67.829 A 24.326 24.326 0 0 1 172.881 68.358 Q 171.831 68.741 170.956 68.929 Z M 86.856 41.429 L 87.456 40.129 A 1.032 1.032 0 0 1 87.542 39.915 Q 87.719 39.574 88.212 38.951 A 21.763 21.763 0 0 1 88.556 38.529 A 26.055 26.055 0 0 1 89.376 37.593 Q 90.118 36.785 91.056 35.879 Q 92.556 34.429 94.056 33.129 A 31.855 31.855 0 0 1 94.944 32.384 Q 95.771 31.719 96.408 31.319 A 8.528 8.528 0 0 1 96.556 31.229 A 8.929 8.929 0 0 1 98.761 30.144 A 7.477 7.477 0 0 1 100.906 29.779 A 7.463 7.463 0 0 1 101.071 29.777 Q 102.177 29.777 103.122 30.11 A 5.442 5.442 0 0 1 104.756 31.029 A 9.145 9.145 0 0 0 104.918 31.186 Q 105.182 31.438 105.679 31.886 A 114.127 114.127 0 0 0 106.006 32.179 Q 106.956 33.029 108.156 34.029 Q 109.356 35.029 110.356 35.929 L 114.056 39.229 L 112.356 44.229 A 19.486 19.486 0 0 0 111.763 46.477 Q 111.245 49.104 111.706 51.229 A 22.8 22.8 0 0 0 112.464 53.947 A 16.758 16.758 0 0 0 113.556 56.429 A 4.337 4.337 0 0 0 114.795 58.01 A 5.347 5.347 0 0 0 115.156 58.279 A 5.806 5.806 0 0 0 117.525 59.209 A 6.743 6.743 0 0 0 117.656 59.229 A 3.219 3.219 0 0 1 119.068 59.768 A 3.796 3.796 0 0 1 119.156 59.829 A 1.596 1.596 0 0 1 119.777 60.757 Q 119.856 61.059 119.856 61.429 A 8.223 8.223 0 0 1 119.8 62.418 Q 119.659 63.582 119.156 64.229 A 3.219 3.219 0 0 1 118.463 64.898 A 2.644 2.644 0 0 1 117.456 65.329 A 12.037 12.037 0 0 1 116.006 65.417 A 11.066 11.066 0 0 1 111.206 64.329 Q 108.256 62.929 105.856 58.329 Q 105.456 57.729 104.806 56.079 A 56.51 56.51 0 0 1 104.581 55.5 Q 104.244 54.615 104.116 54.168 A 3.116 3.116 0 0 1 104.056 53.929 Q 103.749 54.311 103.209 54.958 A 160.64 160.64 0 0 1 102.856 55.379 A 35.348 35.348 0 0 1 102.284 56.042 Q 102.057 56.298 101.85 56.519 A 16.698 16.698 0 0 1 101.456 56.929 Q 94.356 64.129 89.256 66.379 A 15.484 15.484 0 0 1 87.383 67.072 Q 85.873 67.516 84.533 67.516 A 6.803 6.803 0 0 1 80.756 66.429 Q 80.356 65.629 79.256 64.929 Q 78.156 64.229 78.156 63.829 Q 78.156 63.49 77.941 62.938 A 6.513 6.513 0 0 0 77.856 62.729 Q 77.613 62.162 77.304 61.792 A 2.437 2.437 0 0 0 77.156 61.629 A 0.767 0.767 0 0 1 77.015 61.355 Q 76.791 60.612 77.406 58.729 A 37.576 37.576 0 0 1 78.057 56.905 Q 78.382 56.061 78.781 55.117 A 82.863 82.863 0 0 1 79.656 53.129 Q 81.156 49.829 83.056 46.329 Q 83.735 45.649 84.415 44.608 A 16.69 16.69 0 0 0 84.656 44.229 A 28.114 28.114 0 0 1 85.009 43.669 Q 85.549 42.835 85.856 42.529 A 1.069 1.069 0 0 1 86.028 41.951 A 1.451 1.451 0 0 1 86.156 41.779 A 1.123 1.123 0 0 1 86.389 41.569 A 0.831 0.831 0 0 1 86.856 41.429 Z M 123.772 64.74 A 11.01 11.01 0 0 0 125.156 66.029 A 9.255 9.255 0 0 0 125.656 66.495 Q 126.72 67.412 127.512 67.412 A 1.264 1.264 0 0 0 127.806 67.379 A 2.06 2.06 0 0 0 128.168 67.254 Q 129.06 66.856 130.056 65.529 A 6.887 6.887 0 0 0 130.472 64.933 A 5.542 5.542 0 0 0 131.056 63.679 L 131.356 62.729 Q 131.356 62.485 131.587 61.416 A 60.091 60.091 0 0 1 131.706 60.879 A 46.988 46.988 0 0 1 131.939 59.895 A 55.384 55.384 0 0 1 132.556 57.629 Q 132.927 56.367 133.298 55.766 A 1.859 1.859 0 0 1 133.556 55.429 Q 134.012 54.687 134.452 54.092 A 12.136 12.136 0 0 1 135.106 53.279 Q 135.856 52.429 136.556 51.629 Q 139.756 48.129 142.956 46.329 Q 146.156 44.529 149.956 42.329 Q 150.831 41.954 151.549 41.657 A 78.064 78.064 0 0 1 152.356 41.329 A 6.761 6.761 0 0 1 153.44 41.002 A 9.038 9.038 0 0 1 154.656 40.829 Q 156.256 40.729 157.506 39.779 Q 158.36 39.129 158.63 38.597 A 1.036 1.036 0 0 0 158.756 38.129 L 158.706 37.829 Q 158.666 37.594 158.414 37.543 A 0.799 0.799 0 0 0 158.256 37.529 L 157.706 37.129 A 1.508 1.508 0 0 1 157.186 36.452 A 2.118 2.118 0 0 1 157.056 35.929 A 2.14 2.14 0 0 0 156.896 35.609 Q 156.159 34.401 153.806 34.179 A 10.318 10.318 0 0 0 152.836 34.132 A 9.11 9.11 0 0 0 148.856 35.029 A 2.659 2.659 0 0 1 148.842 35.035 Q 148.541 35.184 147.889 35.413 A 30.627 30.627 0 0 1 147.406 35.579 A 9.98 9.98 0 0 0 146.594 35.888 A 7.826 7.826 0 0 0 145.556 36.429 Q 145.087 36.663 144.008 37.386 A 64.917 64.917 0 0 0 143.356 37.829 Q 141.756 38.929 139.956 40.329 A 63.795 63.795 0 0 0 139.899 40.372 A 58.935 58.935 0 0 0 136.556 43.179 Q 135.456 44.175 134.828 45.007 A 5.904 5.904 0 0 0 134.356 45.729 A 1.53 1.53 0 0 1 134.354 45.729 Q 133.797 45.914 133.888 45.364 A 1.409 1.409 0 0 1 133.906 45.279 A 3.57 3.57 0 0 1 134.013 44.916 Q 134.228 44.296 134.756 43.279 Q 135.456 41.929 136.256 40.229 A 88.935 88.935 0 0 0 137.282 38.064 Q 138.691 34.975 139.106 33.279 Q 139.409 32.036 139.21 31.206 A 1.927 1.927 0 0 0 138.556 30.129 A 2.031 2.031 0 0 0 138.502 30.077 Q 137.926 29.542 136.851 29.364 A 6.958 6.958 0 0 0 135.906 29.279 A 7.121 7.121 0 0 0 135.713 29.276 Q 134.911 29.276 134.277 29.463 A 3.116 3.116 0 0 0 133.056 30.129 Q 132.306 31.254 131.387 33.25 A 55.321 55.321 0 0 0 130.756 34.679 Q 129.456 37.729 128.156 41.129 Q 126.856 44.529 126.006 47.429 A 123.045 123.045 0 0 0 125.977 47.524 Q 125.152 50.349 124.956 51.529 A 435.485 435.485 0 0 0 124.763 52.303 Q 124.479 53.446 124.231 54.473 A 248.787 248.787 0 0 0 123.756 56.479 Q 123.474 57.688 123.256 59.103 A 50.962 50.962 0 0 0 122.956 61.429 Q 122.768 62.68 123.011 63.52 A 2.308 2.308 0 0 0 123.456 64.379 A 12.611 12.611 0 0 0 123.772 64.74 Z M 102.756 44.929 L 104.956 41.329 A 19.049 19.049 0 0 0 104.462 40.275 Q 103.948 39.268 103.462 38.69 A 3.303 3.303 0 0 0 103.056 38.279 A 4.288 4.288 0 0 0 102.503 37.883 Q 102.195 37.7 101.899 37.612 A 1.889 1.889 0 0 0 101.356 37.529 A 2.447 2.447 0 0 0 100.494 37.705 Q 99.431 38.107 98.006 39.429 Q 96.612 40.72 95.034 42.727 A 52.631 52.631 0 0 0 93.506 44.779 Q 91.4 47.743 89.036 51.631 A 168.14 168.14 0 0 0 88.256 52.929 A 26.805 26.805 0 0 0 86.965 55.483 A 21.988 21.988 0 0 0 86.356 57.029 L 85.656 59.029 Q 86.156 59.329 87.856 58.529 A 12.743 12.743 0 0 0 88.996 57.911 Q 90.337 57.104 92.056 55.729 A 194.339 194.339 0 0 0 95.162 53.025 Q 96.715 51.642 98.056 50.379 Q 100.656 47.929 102.756 44.929 Z" vector-effect="non-scaling-stroke"/></g></svg>
