<?xml version="1.0" standalone="no"?>
<!DOCTYPE svg PUBLIC "-//W3C//DTD SVG 20010904//EN"
 "http://www.w3.org/TR/2001/REC-SVG-20010904/DTD/svg10.dtd">
<svg version="1.0" xmlns="http://www.w3.org/2000/svg"
 width="700.000000pt" height="700.000000pt" viewBox="0 0 700.000000 700.000000"
 preserveAspectRatio="xMidYMid meet">
<metadata>
Created by potrace 1.14, written by Peter Selinger 2001-2017
</metadata>
<g transform="translate(0.000000,700.000000) scale(0.100000,-0.100000)"
fill="#000000" stroke="none">
<path d="M4069 6706 c-2 -2 -34 -6 -70 -10 -67 -6 -230 -32 -261 -42 -10 -3
-28 -7 -41 -10 -62 -11 -254 -81 -352 -129 -371 -179 -648 -481 -772 -840 -36
-106 -62 -216 -70 -297 -15 -142 -3 -423 22 -538 20 -87 19 -90 -17 -128 -159
-167 -187 -518 -62 -762 26 -50 113 -135 156 -150 l36 -13 17 -96 c66 -367
217 -703 436 -973 79 -97 231 -240 324 -304 l84 -59 0 -126 1 -126 -52 -12
c-29 -6 -114 -42 -188 -78 l-135 -67 -260 -2 c-279 -2 -363 -11 -509 -59 -96
-31 -212 -90 -296 -149 l-65 -46 -25 31 -25 32 0 484 c0 265 2 483 5 484 3 0
21 2 41 5 97 12 214 73 263 137 30 39 62 109 70 152 11 57 7 180 -8 226 -40
130 -149 221 -297 249 -86 17 -1095 12 -1151 -5 -198 -59 -295 -200 -282 -410
7 -100 44 -185 107 -245 43 -41 139 -86 211 -99 33 -6 61 -13 64 -15 2 -3 4
-221 4 -485 l0 -481 -34 -42 c-66 -84 -690 -864 -706 -883 -109 -130 -195
-276 -222 -377 -8 -29 -10 -70 -6 -108 18 -166 109 -274 272 -320 68 -20 115
-20 3397 -20 l3329 0 -5 477 c-4 373 -8 491 -20 538 -43 177 -84 273 -179 415
-182 273 -492 465 -819 506 -30 3 -169 7 -310 8 -240 2 -257 3 -285 23 -48 34
-224 113 -278 126 l-51 12 1 110 c1 61 2 117 3 126 0 9 25 32 55 52 169 112
346 300 485 512 131 202 258 526 296 760 4 22 8 47 10 55 2 8 4 25 4 37 1 15
14 27 45 43 89 42 155 127 196 249 29 87 32 109 35 236 3 131 -17 223 -71 330
-20 38 -39 72 -42 75 -4 3 -15 15 -25 26 -16 20 -17 30 -8 100 21 152 29 419
16 529 -52 451 -386 898 -860 1150 -168 89 -408 167 -590 191 -22 3 -65 9 -95
14 -54 8 -433 13 -441 6z"/>
<path d="M1304 5044 c-56 -19 -86 -45 -111 -94 -42 -82 -26 -174 41 -233 42
-36 88 -50 150 -45 159 13 229 223 109 328 -60 53 -122 67 -189 44z"/>
<path d="M977 4456 c-92 -33 -164 -109 -188 -201 -34 -125 27 -266 143 -330
46 -26 63 -30 133 -30 96 0 151 22 213 86 149 151 77 422 -126 479 -51 14
-129 12 -175 -4z"/>
<path d="M1725 4080 c-46 -7 -93 -30 -116 -56 -75 -86 -67 -213 18 -283 127
-105 318 -14 316 150 -2 118 -104 206 -218 189z"/>
</g>
</svg>
